<svg xmlns="http://www.w3.org/2000/svg" viewBox="0 0 137.16 46.93"><defs><style>.cls-1{fill:#fff;}</style></defs><g id="Layer_2" data-name="Layer 2"><g id="Layer_1-2" data-name="Layer 1"><path class="cls-1" d="M137.16,0a138.56,138.56,0,0,1-18.65,20.19A139.68,139.68,0,0,1,101,33.85c-2.94,1.91-5.81,4.91-9.83,2.31-3.74-2.41-2.36-6-1.55-10.68C86.33,29.18,84,32,81.47,34.6c-2.09,2.09-4,5.94-7.56,4.07-4-2.07-1.52-5.91-.72-8.84,2.5-9.06,7.29-17.18,11.2-25.67.42-.91.81-2,2.07-1.58A2.21,2.21,0,0,1,88,5.31a23,23,0,0,1-2,5c-3.4,6.37-6.88,12.7-9,19.63-.38,1.22-1.13,2.42-.31,3.87C79.08,34,80,32,81.23,30.66c4.4-5.1,9-10.09,12-16.17.6-1.19,1.28-2.55,3-1.84s1.2,2.18.79,3.41c-1.31,3.88-2.79,7.7-4,11.6-.57,1.81-1.78,4.07,0,5.52,2,1.56,3.68-.54,5.26-1.54,12.23-7.73,22.4-17.82,32.56-27.93C132.29,2.29,133.42.27,137.16,0Z"/><path class="cls-1" d="M8.11,22.82c1.11-.22,2.2-.51,3.32-.63a2,2,0,0,1,2.35,1.37c.36,1.17-.55,1.75-1.37,2.31a2.67,2.67,0,0,1-.43.25C8.26,27.45,3.81,31.28.78,27.47c-2.62-3.29,2-6.42,4.45-8.71C12.59,11.78,20.78,6,31.36,4.84c6.19-.67,10.43,3.22,9.31,8.34-.28,1.28-.62,2.85-2.27,2.72-1.49-.12-1.37-1.64-1.34-2.76.13-5.23-3.6-5-6.85-4.28A38.27,38.27,0,0,0,8.11,22.82Z"/><path class="cls-1" d="M78.2,12.22C72.11,20.3,66.88,27.59,63.27,35.89c-1.05,2.41-7.7.12-9.49-3.22a8.32,8.32,0,0,1-.52-5.73c1.52-7.91,5.6-14.59,10.16-21,.86-1.22,1.91-2.61,3.58-1.26s.72,2.68-.34,3.81c-4.59,5-6.89,11.11-9.13,17.24-.73,2-2.73,5.17.38,6.51,2.51,1.08,3.71-2,5-3.8,3-4.07,6-8.22,9.08-12.24A8.71,8.71,0,0,1,78.2,12.22Z"/><path class="cls-1" d="M15.74,43.3c1-6.73,3.45-13.33,5.38-20,.34-1.17,1.2-2.09,2.6-1.41s1.5,2,1.12,3.37c-1.12,3.91-2.29,7.81-3.4,11.72-.67,2.35-1.28,4.71-1.91,7.07-.32,1.17,0,3-1.84,2.92C15.67,46.82,15.94,45,15.74,43.3Z"/><path class="cls-1" d="M33.39,37.61c.82-6.93,3.82-12.79,6.59-18.73.51-1.09,1.47-1.88,2.8-1.05a2.24,2.24,0,0,1,.77,3c-1.29,3-2.78,5.94-4,9-1,2.58-1.6,5.31-2.51,7.93-.38,1.11-.19,3.07-2.08,2.74C33.46,40.27,33.5,38.61,33.39,37.61Z"/></g></g></svg>